<?xml version="1.0" encoding="UTF-8" standalone="no"?><!DOCTYPE svg PUBLIC "-//W3C//DTD SVG 1.1//EN" "http://www.w3.org/Graphics/SVG/1.1/DTD/svg11.dtd"><svg width="100%" height="100%" viewBox="0 0 1192 1205" version="1.1" xmlns="http://www.w3.org/2000/svg" xmlns:xlink="http://www.w3.org/1999/xlink" xml:space="preserve" xmlns:serif="http://www.serif.com/" style="fill-rule:evenodd;clip-rule:evenodd;stroke-linejoin:round;stroke-miterlimit:2;"><path d="M347.279,113.078c10.104,-6.63 20.522,-12.313 30.626,-17.68c43.885,-23.679 85.56,-38.834 120.606,-48.621c35.044,-9.472 63.775,-13.892 83.35,-16.733c19.575,-2.21 29.994,-3.157 29.994,-3.157c0,0 -2.632,-0.211 -7.894,-0.632c-5.05,-0.316 -12.627,-0.947 -22.415,-1.263l-16.735,0c-6.314,0 -12.944,0 -20.205,0.631c-6.947,0.316 -14.84,0.631 -23.363,1.263c-8.209,0.842 -16.945,1.789 -26.205,2.841c-37.254,5.052 -82.088,15.47 -131.34,35.045c-3.579,1.473 -7.05,2.947 -10.419,4.42c0.315,12.629 -1.893,26.836 -5.999,43.885Z" style="fill:#d4af35;fill-rule:nonzero;"/><path d="M267.715,171.798c4.42,-13.576 11.681,-29.046 23.363,-46.727c7.577,-11.682 12.944,-23.048 16.418,-34.098c-21.47,11.682 -42.938,24.942 -64.408,40.412c0.632,19.259 5.052,36.624 12.944,51.146c4,-3.579 7.894,-7.155 11.683,-10.734Z" style="fill:#d4af35;fill-rule:nonzero;"/><path d="M1185.834,629.609c-0.315,-10.104 -0.947,-17.681 -1.264,-22.732c-0.21,-5.052 -0.315,-7.577 -0.315,-7.577c0,0 -1.264,10.417 -3.157,29.992c-0.842,4.842 -1.683,10.314 -2.527,16.418c-0.947,5.999 -1.893,12.313 -3.472,19.26c-1.578,6.945 -2.842,14.523 -4.735,22.415c-1.895,7.999 -4,16.418 -6.316,25.259c-9.471,35.044 -24.625,76.404 -48.305,120.606c-1.262,2.84 -2.842,5.682 -4.42,8.209c-1.473,2.735 -3.052,5.577 -4.735,8.524c-1.683,2.735 -3.367,5.472 -5.052,8.209c-1.473,2.947 -3.157,5.787 -5.05,8.524c-3.579,5.472 -7.157,11.051 -10.736,16.733c-3.789,5.684 -7.892,11.051 -11.996,16.733c-16.418,22.417 -35.046,45.148 -56.199,66.619c-42.938,42.621 -95.664,82.086 -157.545,111.765c-61.565,29.362 -131.972,48.62 -205.534,52.726c-4.63,0.21 -9.261,0.42 -13.891,0.63c-4.737,0.317 -9.158,0 -13.893,0c-4.63,0.212 -9.261,0.317 -13.891,0.317c-4.63,-0.21 -9.263,-0.422 -13.893,-0.632c-5.05,-0.21 -10.102,-0.422 -15.154,-0.632c-4.42,-0.42 -8.946,-0.842 -13.576,-1.264c-4.42,-0.42 -8.946,-0.842 -13.576,-1.262c-4.63,-0.842 -9.261,-1.578 -13.891,-2.21c-4.735,-0.632 -9.472,-1.264 -14.208,-1.895c-4.63,-1.052 -9.261,-1.998 -13.891,-2.84c-9.472,-1.578 -18.628,-4.105 -27.784,-6.316l-6.945,-1.893c-2.21,-0.632 -4.42,-1.264 -6.947,-1.895c-4.418,-1.473 -8.944,-2.842 -13.576,-4.104c-4.735,-1.264 -9.156,-2.842 -13.576,-4.42l-13.891,-4.735c-35.993,-13.261 -70.405,-31.258 -103.241,-52.094c-32.834,-20.838 -63.143,-45.465 -90.927,-72.932c-54.936,-54.936 -97.874,-122.184 -124.71,-194.168l-4.736,-13.576c-1.579,-4.42 -3.157,-9.156 -4.42,-13.576c-1.473,-4.63 -2.841,-9.263 -4.104,-13.893c-0.631,-2.21 -1.579,-4.42 -2.21,-6.945l-1.579,-6.945c-2.21,-9.156 -4.736,-18.311 -6.314,-27.784c-0.842,-4.63 -1.789,-9.261 -2.841,-13.891c-0.947,-4.737 -1.263,-9.156 -1.894,-13.893c-5.683,-37.571 -6.946,-74.826 -5.052,-112.397c0.316,-4.42 0.316,-8.839 0.947,-13.259c0.421,-4.63 0.842,-9.156 1.263,-13.576c0.631,-4.737 0.947,-9.156 1.579,-13.576c0.631,-4.63 1.368,-9.156 2.21,-13.576c0.631,-4.42 1.263,-8.841 2.21,-13.261c0.842,-4.42 1.684,-8.839 2.526,-13.259c0.947,-4.42 1.579,-8.841 2.841,-13.261c1.052,-4.42 2.21,-8.736 3.473,-12.944c8.84,-34.414 21.153,-67.565 35.677,-98.189c14.839,-30.941 32.204,-59.671 50.831,-85.877c11.998,-16.418 24.31,-32.204 37.572,-46.727c-1.895,-2.315 -3.789,-4.63 -5.684,-6.945c-9.051,-12.629 -16.838,-25.574 -23.363,-38.835c-18.627,17.05 -36.939,35.993 -54.304,56.514c-23.048,27.469 -44.517,58.093 -63.144,91.56c-18.627,33.466 -34.414,69.773 -46.727,108.291c-1.473,4.842 -2.947,9.682 -4.42,14.523c-1.579,5.052 -2.842,9.787 -4.104,14.84c-1.263,5.052 -2.526,9.997 -3.789,14.84c-1.263,5.05 -2.21,10.102 -3.157,15.154c-1.052,5.05 -2.105,10.207 -3.157,15.469c-0.947,5.052 -1.579,10.104 -2.21,15.471c-0.842,5.05 -1.579,10.207 -2.21,15.469c-0.947,5.052 -1.263,10.736 -1.894,16.103c-4.104,41.358 -3.789,84.613 1.263,127.866c0.631,5.367 0.947,10.734 1.894,16.418c0.842,5.262 1.789,10.629 2.841,16.101c1.579,10.734 4.104,21.47 6.314,32.204l1.894,8.209c0.631,2.735 1.263,5.367 1.894,7.892c1.473,5.472 2.947,10.841 4.42,16.101c1.579,5.369 3.157,10.736 5.052,16.103c1.684,5.052 3.368,10.314 5.051,15.786c29.362,84.296 79.246,162.596 143.022,227.004c32.203,31.887 67.881,60.301 106.082,84.296c18.943,12.314 38.835,23.049 59.039,32.836c2.315,1.262 4.842,2.42 7.577,3.472l7.577,3.474l15.471,6.631c10.419,4.104 20.838,8.209 31.256,11.998c5.262,1.683 10.524,3.367 15.786,5.05c5.367,1.895 10.736,3.789 16.103,5.052c5.262,1.473 10.524,2.947 15.786,4.42c2.84,0.632 5.367,1.578 8.207,2.21l7.894,1.578c10.734,2.525 21.468,5.052 32.519,6.631c5.472,0.842 10.839,1.683 16.101,2.525c5.367,0.947 10.736,1.264 16.418,1.895c5.262,0.63 10.629,1.262 16.101,1.893c5.367,0.315 11.051,0.632 16.735,1.264c5.472,0.21 10.944,0.42 16.416,0.632c5.052,0.21 10.104,0.315 15.154,0.315l16.103,0c5.262,-0.21 10.629,-0.422 16.101,-0.632c5.367,-0.315 10.419,-0.315 15.786,-0.632c5.262,-0.632 10.524,-1.157 15.786,-1.578c83.981,-8.209 162.912,-34.412 229.529,-71.669c33.466,-18.626 64.092,-39.779 91.559,-63.143c27.469,-23.049 51.779,-47.359 72.932,-72.932c42.307,-50.83 71.984,-103.873 91.559,-152.81c19.892,-49.252 30.309,-94.4 35.046,-131.34c1.052,-9.471 2.105,-18.311 3.157,-26.52c0.632,-8.209 0.947,-16.101 1.264,-23.363c0.315,-7.26 0.315,-13.891 0.315,-20.205l0,-16.418Z" style="fill:#d4af35;fill-rule:nonzero;"/><path d="M226.987,203.08c32.834,44.517 72.301,81.456 123.131,104.503c11.366,5.367 23.995,8.209 39.781,13.261c-31.572,-42.307 -27.152,-67.248 10.102,-76.404c-9.156,-6.316 -16.418,-9.787 -22.732,-9.787c-12.944,0 -21.468,13.891 -32.519,44.832c-27.152,-12.629 -42.307,-35.044 -40.413,-60.935c1.578,-21.153 10.736,-36.939 31.572,-44.832c12.314,-4.42 24.627,-9.156 36.308,-14.84c16.103,-7.892 26.52,-20.522 27.152,-39.465c-11.366,8.524 -21.785,19.259 -34.412,24.626c-13.261,5.683 -29.047,6.314 -44.517,9.156c25.574,-77.352 25.257,-104.504 -3.789,-131.34c17.048,41.359 8.209,77.036 -13.576,110.818c-17.996,27.783 -31.258,57.145 -26.52,92.506c-59.041,-40.096 -62.83,-122.5 -14.84,-217.532c-10.734,12.629 -22.732,24.311 -31.258,38.202c-8.839,14.523 -13.891,31.256 -24.31,47.042c0,-27.783 -0.632,-55.567 0.317,-83.35c0.947,-19.575 2.525,-38.518 -12.944,-50.831c-2.527,23.048 -4.737,46.727 -8.21,70.406c-9.472,63.46 2.842,121.552 41.676,173.963Z" style="fill:#fff;fill-rule:nonzero;"/><path d="M987.878,1067.215c-32.834,5.999 -21.785,10.104 -31.887,-19.258c-27.152,-80.195 -72.615,-145.865 -144.284,-193.221c-27.784,-18.313 -51.462,-42.307 -77.036,-63.777c-5.999,-4.735 -11.998,-9.787 -20.838,-17.048c-6.945,-3.474 -103.241,-54.936 -60.303,-135.445c0,0 -54.619,88.718 63.46,153.757c9.787,37.254 36.625,59.671 65.987,82.403c-20.207,44.517 -40.098,88.718 -59.988,132.918c-7.26,15.471 -13.259,31.258 -21.468,46.095c-13.261,23.995 -18.628,23.363 -38.518,17.996c21.468,-57.461 42.621,-113.658 63.775,-169.858c-52.409,-33.783 -103.241,-68.512 -130.708,-122.499l31.887,-26.52c-25.574,15.469 -61.25,21.153 -61.25,21.153c-32.519,5.05 -65.038,10.417 -97.242,16.416c-4.104,0.632 -8.524,10.104 -9.471,15.786c-11.051,85.562 -31.258,264.258 -33.783,266.468c-2.842,1.895 -15.786,2.842 -22.1,-1.262c-6.631,-4.105 6.629,-188.171 10.102,-284.15c0,0 -45.463,-13.259 -61.25,-30.941c0,0 15.154,23.363 31.572,36.308c-22.732,21.785 -49.884,40.096 -77.668,58.093c18.943,50.201 37.886,100.399 57.144,151.863c-17.994,4.735 -22.732,5.367 -34.412,-16.103c-7.262,-13.259 -12.944,-27.467 -19.26,-41.36c-17.994,-39.465 -35.676,-78.929 -53.672,-118.711c24.627,-19.258 47.674,-38.518 57.461,-69.144c-5.999,-12.944 -13.259,-25.257 -21.468,-36.623c-34.729,-47.359 -49.252,-117.449 -49.252,-117.449c-3.789,-25.889 -42.307,-183.434 50.199,-267.1c-10.102,-6.314 -17.996,-10.734 -26.835,-15.469c-28.73,-14.523 -36.308,-28.416 -30.941,-60.62c13.891,3.159 23.993,4.737 36.623,18.628c9.156,10.419 38.835,42.307 38.835,42.307c24.942,-3.157 39.148,-0.947 63.143,5.367c25.259,6.947 44.834,22.417 57.778,47.044c16.101,30.941 41.99,52.094 74.194,65.67c17.996,7.577 19.89,19.258 5.052,32.519c-5.367,4.735 -12.313,8.841 -19.26,10.734c-30.309,8.841 -64.092,8.524 -94.4,0.947c-31.572,-6.314 -121.552,-28.73 -99.136,-62.513c0,0 -38.203,42.623 103.873,71.669c13.574,18.628 53.987,57.463 97.872,60.935c43.885,3.474 87.14,0.947 130.393,-9.471c66.933,-15.471 127.236,1.262 180.592,44.517c9.156,7.577 12.944,14.523 11.051,27.782c-7.577,48.937 -7.577,97.874 11.051,145.233c13.259,33.783 35.676,60.303 64.09,82.403c5.052,3.789 10.736,8.841 13.261,14.208c29.677,69.459 53.672,127.236 83.035,196.378c0.632,1.578 -6.314,11.051 -5.999,12.944Zm-613.761,-709.74c2.525,5.05 6.945,9.471 12.944,11.998c5.684,2.21 11.998,2.21 17.365,0.315c-2.525,-5.367 -6.945,-9.787 -12.629,-11.998c-5.999,-2.525 -11.998,-2.21 -17.68,-0.315Z" style="fill:#fff;"/></svg>