<svg xmlns="http://www.w3.org/2000/svg" width="175" height="66" viewBox="0 0 175 66" fill="none"><path d="M79.4832 39.4016C79.4832 35.5639 79.5493 31.5607 79.5493 27.4749V7.34348H70.0543C66.5309 7.34348 65.2572 10.0894 63.1895 14.2745L63.4376 3.75391C65.0091 3.88624 66.5309 4.00203 68.1685 4.00203H98.589C100.227 4.00203 101.815 3.88624 103.336 3.75391L103.088 14.2745C101.021 10.0894 100.227 7.34348 96.7032 7.34348H87.5225V27.4749C87.5225 34.0585 87.5721 37.2677 87.7541 41.5851C87.936 45.5386 88.4819 47.8544 91.1121 49.6244H75.844C78.4576 48.1026 79.4832 46.3988 79.4832 39.4016Z" fill="#D4AF35"></path><path fill-rule="evenodd" clip-rule="evenodd" d="M111.608 49.6247H106.314C108.432 48.1028 109.044 46.3328 109.226 42.9252C109.358 40.6755 109.474 36.8544 109.474 32.173V21.4539C109.474 17.2027 109.474 13.6792 109.226 10.5694C109.044 8.08811 108.498 5.95421 106.248 4.00227H111.178C114.453 4.00227 118.903 3.82031 122.608 3.82031C130.763 3.82031 136.42 6.74822 136.42 13.977C136.42 20.114 132.516 23.0419 126.925 25.1758V25.2254C134.468 26.3834 139.878 29.1789 139.878 36.722C139.878 45.6712 133.079 49.9886 121.996 49.9886C118.654 49.9886 115.495 49.6247 111.608 49.6247ZM128.265 15.6146C128.265 10.0235 125.354 6.20234 120.673 6.20234C119.448 6.20234 118.539 6.31813 118.042 6.56626C117.629 6.79784 117.447 7.22793 117.447 7.77381V24.1337C117.447 24.5638 117.563 24.7457 117.811 24.8119C118.539 24.9939 119.63 25.0435 121.036 25.0435C125.9 25.0435 128.265 22.496 128.265 15.6146ZM131.011 39.4018C131.011 32.2226 128.017 28.2195 121.814 27.6075C120.54 27.4751 119.018 27.4751 117.745 27.4751C117.563 27.4751 117.447 27.6075 117.447 27.9052V29.7248C117.447 34.4227 117.447 40.5597 117.563 42.6936C117.678 44.9929 118.224 45.9689 119.63 46.6967C120.904 47.375 122.31 47.5569 123.766 47.5569C127.422 47.5569 131.011 45.2411 131.011 39.4018Z" fill="#D4AF35"></path><path d="M148.645 48.2848C147.85 47.9705 147.735 47.5569 147.735 46.7629C147.735 45.7869 147.917 41.8335 148.099 38.674C151.076 44.2651 155.509 47.0607 160.737 47.0607C165.302 47.0607 168.23 44.9433 168.164 40.9898C168.098 36.6062 163.913 34.6047 158.189 31.4948C152.168 28.2691 147.305 24.6796 147.371 17.2027C147.42 8.81595 153.078 3.82031 161.663 3.82031C166.642 3.82031 170.777 4.79628 172.365 4.79628V14.159C169.438 9.65958 165.732 7.04597 160.687 7.04597C156.188 7.04597 153.442 9.29566 153.442 13.183C153.442 17.4508 157.527 19.5681 163.003 22.3803C169.14 25.5894 174.665 28.8812 174.615 36.722C174.549 44.811 168.594 50.1044 159.463 50.1044C154.897 50.1044 151.258 49.3765 148.645 48.2848Z" fill="#D4AF35"></path><path d="M66.0839 61.6176C66.1169 61.3033 66.1169 60.6251 66.1169 59.5499C66.1169 58.6897 66.1169 57.5152 66.1004 56.6385H64.777C64.3304 56.6385 64.1485 56.9032 63.8838 57.5318L63.9334 56.3242C64.1485 56.3408 64.3304 56.3573 64.5455 56.3573H68.3501C68.5651 56.3573 68.7471 56.3408 68.9621 56.3242L68.9125 57.5318C68.6478 56.9032 68.5651 56.6385 68.1185 56.6385H66.729V59.5499C66.729 60.6251 66.7455 61.2206 66.7786 61.6011C66.7952 61.8657 66.9606 62.0477 67.3741 62.18H65.5214C65.9184 62.0477 66.0673 61.8823 66.0839 61.6176Z" fill="white"></path><path d="M69.0618 61.5372V59.2048C68.9129 59.0394 68.7641 58.8905 68.6317 58.7251L69.5581 58.3281V61.5372C69.5581 61.8515 69.6573 62.017 70.0709 62.1824H68.5986C68.9791 62.017 69.0618 61.8515 69.0618 61.5372ZM70.3024 58.8409C70.0378 58.8409 69.8227 58.9071 69.5581 59.0725C69.7731 58.6093 70.1701 58.3281 70.6498 58.3281C70.7656 58.3281 70.8649 58.3447 70.931 58.3612L71.0137 59.0725C70.8152 58.9236 70.5837 58.8409 70.3024 58.8409Z" fill="white"></path><path d="M71.3936 61.3884C71.3936 60.7929 71.8567 60.5778 72.4192 60.462L73.3951 60.2635C73.4117 60.0485 73.4282 59.7673 73.4282 59.4364C73.4282 58.9733 73.2132 58.7582 72.6838 58.7582C72.2041 58.7582 71.8071 58.9071 71.4432 59.271C71.4432 59.056 71.5094 58.8905 71.6086 58.7582C71.8071 58.477 72.2041 58.3281 72.7169 58.3281C73.4944 58.3281 73.9245 58.659 73.9245 59.3703C73.9245 60.065 73.8417 60.8425 73.8417 61.5042C73.8417 61.7192 73.941 61.8515 74.156 61.8515C74.3545 61.8515 74.4703 61.7854 74.5696 61.6861C74.5696 61.835 74.52 61.9673 74.4373 62.0666C74.3545 62.1824 74.2057 62.2485 73.9906 62.2485C73.6102 62.2485 73.3786 62.0004 73.3786 61.6034C73.3786 60.9748 73.3951 60.7432 73.3951 60.5447L72.4026 60.6605C72.0883 60.6936 71.8567 60.8259 71.8567 61.1733C71.8567 61.6199 72.171 61.8515 72.5846 61.8515C72.9485 61.8515 73.1966 61.7523 73.3786 61.6034C73.2297 61.9839 72.9319 62.2485 72.353 62.2485C71.7906 62.2485 71.3936 61.9342 71.3936 61.3884Z" fill="white"></path><path d="M75.7444 61.5372V59.2048C75.6121 59.0394 75.4632 58.8905 75.3143 58.7251L76.2407 58.3281V61.5372C76.2407 61.8515 76.3565 62.017 76.7204 62.1824H75.2812C75.6286 62.017 75.7444 61.8515 75.7444 61.5372ZM78.0934 61.5372V59.668C78.0934 59.1221 77.8287 58.8078 77.2497 58.8078C76.8693 58.8078 76.5384 58.9071 76.2407 59.0725C76.4888 58.6259 76.8858 58.3281 77.4813 58.3281C78.1926 58.3281 78.6062 58.7913 78.6062 59.4861V61.5372C78.6062 61.8515 78.7054 62.017 79.0859 62.1824H77.6136C77.961 62.017 78.0934 61.8515 78.0934 61.5372Z" fill="white"></path><path d="M79.9628 61.5207C79.9628 61.4545 79.9463 61.3718 79.9628 61.3057C80.2937 61.7192 80.6907 61.9012 81.1869 61.9012C81.6501 61.9012 81.9809 61.6696 81.9809 61.2891C81.9809 61.0575 81.6501 60.9252 81.2696 60.7763C80.6907 60.5447 79.9463 60.2304 79.9463 59.4364C79.9463 58.7086 80.5087 58.3281 81.1373 58.3281C81.7824 58.3281 82.2291 58.5928 82.2787 59.056C82.2952 59.1056 82.2952 59.1718 82.2787 59.2379C81.9644 58.874 81.5839 58.7251 81.0877 58.7251C80.641 58.7251 80.3102 58.9567 80.3102 59.3537C80.3102 59.6018 80.6576 59.7507 81.0711 59.9327C81.6501 60.1808 82.3449 60.4786 82.3449 61.2229C82.3449 61.8515 81.8486 62.2485 81.1208 62.2485C80.5253 62.2485 80.0455 62.0335 79.9628 61.5207Z" fill="white"></path><path d="M83.5687 63.241V59.2048L83.1221 58.7251L84.065 58.3281V61.7357C84.3296 61.8681 84.6605 61.9508 85.0078 61.9508C85.8184 61.9508 86.2816 61.2891 86.2816 60.3462C86.2816 59.3372 85.7688 58.7582 84.9913 58.7582C84.6108 58.7582 84.3131 58.8244 84.065 59.0063C84.2304 58.6093 84.6274 58.3281 85.1733 58.3281C86.05 58.3281 86.7613 58.9567 86.7613 60.2304C86.7613 61.438 86.0169 62.2485 84.9913 62.2485C84.6439 62.2485 84.3131 62.1493 84.065 61.9508V63.241C84.065 63.5553 84.1973 63.7373 84.5612 63.9027H83.1221C83.4529 63.7373 83.5687 63.5553 83.5687 63.241Z" fill="white"></path><path d="M87.6045 61.3884C87.6045 60.7929 88.0677 60.5778 88.6136 60.462L89.6061 60.2635C89.6226 60.0485 89.6391 59.7673 89.6391 59.4364C89.6391 58.9733 89.4241 58.7582 88.8948 58.7582C88.415 58.7582 88.018 58.9071 87.6541 59.271C87.6541 59.056 87.7037 58.8905 87.8195 58.7582C88.018 58.477 88.415 58.3281 88.9278 58.3281C89.7053 58.3281 90.1354 58.659 90.1354 59.3703C90.1354 60.065 90.0527 60.8425 90.0527 61.5042C90.0527 61.7192 90.1519 61.8515 90.367 61.8515C90.5655 61.8515 90.6813 61.7854 90.7805 61.6861C90.7805 61.835 90.7309 61.9673 90.6482 62.0666C90.5655 62.1824 90.4166 62.2485 90.2016 62.2485C89.8211 62.2485 89.5895 62.0004 89.5895 61.6034C89.5895 60.9748 89.6061 60.7432 89.6061 60.5447L88.6136 60.6605C88.2993 60.6936 88.0677 60.8259 88.0677 61.1733C88.0677 61.6199 88.382 61.8515 88.7955 61.8515C89.1429 61.8515 89.391 61.7523 89.5895 61.6034C89.4406 61.9839 89.1429 62.2485 88.5639 62.2485C87.985 62.2485 87.6045 61.9342 87.6045 61.3884Z" fill="white"></path><path d="M91.9554 61.5372V59.2048C91.8065 59.0394 91.6576 58.8905 91.5253 58.7251L92.4516 58.3281V61.5372C92.4516 61.8515 92.5509 62.017 92.9644 62.1824H91.4922C91.8726 62.017 91.9554 61.8515 91.9554 61.5372ZM93.196 58.8409C92.9313 58.8409 92.7163 58.9071 92.4516 59.0725C92.6667 58.6093 93.0637 58.3281 93.5434 58.3281C93.6592 58.3281 93.7584 58.3447 93.8246 58.3612L93.9238 59.0725C93.7088 58.9236 93.4772 58.8409 93.196 58.8409Z" fill="white"></path><path fill-rule="evenodd" clip-rule="evenodd" d="M94.3535 60.3628C94.3535 59.1718 95.0648 58.3281 96.0739 58.3281C96.934 58.3281 97.4799 58.8409 97.4799 59.8169C97.4799 59.8831 97.4799 59.9327 97.4799 59.9823H94.8994C94.8884 60.0595 94.8829 60.1312 94.8829 60.1974C94.8829 61.1072 95.3626 61.835 96.3055 61.835C96.8017 61.835 97.116 61.7192 97.4138 61.5538C97.3807 61.7357 97.2814 61.8681 97.1491 61.9839C96.934 62.1493 96.6198 62.2485 96.1566 62.2485C95.0152 62.2485 94.3535 61.5042 94.3535 60.3628ZM96.9175 59.7342C96.901 59.1056 96.5701 58.6259 95.925 58.6259C95.2964 58.6259 94.9656 59.2048 94.8994 59.8334L96.9175 59.7342Z" fill="white"></path><path d="M98.721 61.5372V59.2048C98.5886 59.0394 98.4398 58.8905 98.2909 58.7251L99.2172 58.3281V61.5372C99.2172 61.8515 99.333 62.017 99.697 62.1824H98.2578C98.6052 62.017 98.721 61.8515 98.721 61.5372ZM101.07 61.5372V59.668C101.07 59.1221 100.805 58.8078 100.226 58.8078C99.8458 58.8078 99.515 58.9071 99.2172 59.0725C99.4654 58.6259 99.8624 58.3281 100.441 58.3281C101.169 58.3281 101.583 58.7913 101.583 59.4861V61.5372C101.583 61.8515 101.682 62.017 102.062 62.1824H100.59C100.938 62.017 101.07 61.8515 101.07 61.5372Z" fill="white"></path><path d="M103.27 61.2054L103.286 58.8068H102.773L103.782 57.7812V58.5256H105.139L105.089 58.8068H103.782V61.2054C103.782 61.619 104.014 61.8505 104.411 61.8505C104.725 61.8505 104.974 61.7513 105.172 61.6355C105.106 62.049 104.775 62.2475 104.279 62.2475C103.667 62.2475 103.27 61.8836 103.27 61.2054Z" fill="white"></path><path fill-rule="evenodd" clip-rule="evenodd" d="M108.497 62.18H107.769C108.166 62.0312 108.282 61.8492 108.315 61.6176C108.332 61.3033 108.348 60.6913 108.348 59.9469V58.5904C108.348 57.9122 108.348 57.5152 108.332 57.0024C108.332 56.7047 108.15 56.5393 107.72 56.3573H108.448C108.861 56.3573 109.242 56.3242 109.639 56.3242C110.763 56.3242 111.243 56.837 111.243 57.6145C111.243 58.3754 110.813 58.6897 110.35 59.0536V59.0702C111.045 59.2521 111.723 59.5664 111.723 60.5424C111.723 61.4522 111.045 62.2297 109.738 62.2297C109.324 62.2297 108.993 62.18 108.497 62.18ZM110.615 57.8461C110.615 57.0355 110.3 56.5558 109.457 56.5558C109.275 56.5558 109.142 56.5558 109.06 56.5889C108.977 56.622 108.96 56.6716 108.96 56.7378V58.9378C108.96 59.004 108.977 59.0205 109.01 59.0371C109.126 59.0536 109.308 59.0536 109.539 59.0536C110.317 59.0536 110.615 58.5904 110.615 57.8461ZM111.045 60.8732C111.045 59.9303 110.631 59.3679 109.655 59.2852C109.457 59.2687 109.208 59.2687 109.01 59.2687C108.977 59.2687 108.96 59.2852 108.96 59.3183V59.5499C108.96 60.1619 108.96 61.1048 108.977 61.3695C108.993 61.6672 109.06 61.7996 109.308 61.8823C109.506 61.965 109.738 61.9815 109.953 61.9815C110.383 61.9815 111.045 61.7499 111.045 60.8732Z" fill="white"></path><path d="M113.113 61.0741V59.1883C112.98 59.0394 112.832 58.8905 112.699 58.7251L113.642 58.3281V60.9914C113.642 61.5703 113.907 61.8515 114.502 61.8515C114.85 61.8515 115.197 61.7523 115.495 61.5042C115.346 62.017 114.866 62.2485 114.32 62.2485C113.543 62.2485 113.113 61.8019 113.113 61.0741ZM115.495 61.6034C115.495 61.2726 115.495 60.9417 115.495 60.5944V59.1883C115.362 59.0394 115.214 58.8905 115.081 58.7251L116.024 58.3281C116.024 58.8905 116.008 59.3372 115.991 59.8003C115.975 60.462 115.975 61.3718 115.975 61.5042C115.975 61.7192 116.074 61.8515 116.289 61.8515C116.454 61.8515 116.57 61.7854 116.669 61.7027C116.669 61.8791 116.614 62.017 116.504 62.1162C116.421 62.1989 116.272 62.2485 116.107 62.2485C115.726 62.2485 115.495 61.9839 115.495 61.6034Z" fill="white"></path><path d="M117.529 61.5207C117.529 61.4545 117.513 61.3718 117.529 61.3057C117.86 61.7192 118.241 61.9012 118.753 61.9012C119.217 61.9012 119.531 61.6696 119.531 61.2891C119.531 61.0575 119.217 60.9252 118.836 60.7763C118.257 60.5447 117.513 60.2304 117.513 59.4364C117.513 58.7086 118.075 58.3281 118.704 58.3281C119.349 58.3281 119.795 58.5928 119.845 59.056C119.862 59.1056 119.862 59.1718 119.845 59.2379C119.531 58.874 119.134 58.7251 118.638 58.7251C118.191 58.7251 117.877 58.9567 117.877 59.3537C117.877 59.6018 118.224 59.7507 118.621 59.9327C119.217 60.1808 119.911 60.4786 119.911 61.2229C119.911 61.8515 119.415 62.2485 118.687 62.2485C118.075 62.2485 117.595 62.0335 117.529 61.5207Z" fill="white"></path><path d="M121.218 61.534V59.2016C121.069 59.0362 120.92 58.8873 120.788 58.7219L121.714 58.3249V61.534C121.714 61.8483 121.814 62.0137 122.194 62.1792H120.755C121.086 62.0137 121.218 61.8483 121.218 61.534ZM121.003 57.0346C121.003 56.8527 121.202 56.6211 121.4 56.6211C121.582 56.6211 121.797 56.8361 121.797 57.0346C121.797 57.2166 121.599 57.4316 121.4 57.4316C121.202 57.4316 121.003 57.2331 121.003 57.0346Z" fill="white"></path><path d="M123.435 61.5372V59.2048C123.303 59.0394 123.154 58.8905 123.005 58.7251L123.931 58.3281V61.5372C123.931 61.8515 124.047 62.017 124.411 62.1824H122.972C123.319 62.017 123.435 61.8515 123.435 61.5372ZM125.784 61.5372V59.668C125.784 59.1221 125.519 58.8078 124.94 58.8078C124.56 58.8078 124.229 58.9071 123.931 59.0725C124.179 58.6259 124.576 58.3281 125.172 58.3281C125.883 58.3281 126.297 58.7913 126.297 59.4861V61.5372C126.297 61.8515 126.396 62.017 126.776 62.1824H125.304C125.651 62.017 125.784 61.8515 125.784 61.5372Z" fill="white"></path><path fill-rule="evenodd" clip-rule="evenodd" d="M127.587 60.3628C127.587 59.1718 128.282 58.3281 129.307 58.3281C130.167 58.3281 130.713 58.8409 130.713 59.8169C130.713 59.8831 130.713 59.9327 130.713 59.9823H128.133C128.122 60.0595 128.116 60.1312 128.116 60.1974C128.116 61.1072 128.579 61.835 129.539 61.835C130.019 61.835 130.349 61.7192 130.647 61.5538C130.614 61.7357 130.515 61.8681 130.382 61.9839C130.167 62.1493 129.837 62.2485 129.39 62.2485C128.249 62.2485 127.587 61.5042 127.587 60.3628ZM130.134 59.7342C130.134 59.1056 129.804 58.6259 129.158 58.6259C128.53 58.6259 128.182 59.2048 128.133 59.8334L130.134 59.7342Z" fill="white"></path><path d="M131.623 61.5207C131.623 61.4545 131.606 61.3718 131.623 61.3057C131.954 61.7192 132.334 61.9012 132.847 61.9012C133.31 61.9012 133.625 61.6696 133.625 61.2891C133.625 61.0575 133.31 60.9252 132.93 60.7763C132.351 60.5447 131.606 60.2304 131.606 59.4364C131.606 58.7086 132.169 58.3281 132.797 58.3281C133.443 58.3281 133.889 58.5928 133.939 59.056C133.955 59.1056 133.955 59.1718 133.939 59.2379C133.625 58.874 133.228 58.7251 132.731 58.7251C132.301 58.7251 131.97 58.9567 131.97 59.3537C131.97 59.6018 132.318 59.7507 132.715 59.9327C133.31 60.1808 134.005 60.4786 134.005 61.2229C134.005 61.8515 133.509 62.2485 132.781 62.2485C132.185 62.2485 131.689 62.0335 131.623 61.5207Z" fill="white"></path><path d="M134.947 61.5207C134.947 61.4545 134.931 61.3718 134.947 61.3057C135.278 61.7192 135.675 61.9012 136.171 61.9012C136.634 61.9012 136.965 61.6696 136.965 61.2891C136.965 61.0575 136.634 60.9252 136.254 60.7763C135.675 60.5447 134.931 60.2304 134.931 59.4364C134.931 58.7086 135.493 58.3281 136.122 58.3281C136.767 58.3281 137.213 58.5928 137.263 59.056C137.28 59.1056 137.28 59.1718 137.263 59.2379C136.949 58.874 136.568 58.7251 136.072 58.7251C135.625 58.7251 135.295 58.9567 135.295 59.3537C135.295 59.6018 135.642 59.7507 136.056 59.9327C136.634 60.1808 137.329 60.4786 137.329 61.2229C137.329 61.8515 136.833 62.2485 136.105 62.2485C135.51 62.2485 135.03 62.0335 134.947 61.5207Z" fill="white"></path><path d="M140.439 62.0465C140.34 61.9969 140.323 61.9638 140.323 61.8646C140.323 61.7322 140.356 61.236 140.373 60.8224C140.588 61.6165 140.935 61.9804 141.663 61.9804C142.374 61.9804 142.788 61.5999 142.771 60.9548C142.771 60.3427 142.259 59.9292 141.696 59.4991C141.101 59.0359 140.456 58.5066 140.456 57.663C140.456 56.8193 141.068 56.2734 142.044 56.2734C142.623 56.2734 142.937 56.4058 143.119 56.4058V57.4645C142.937 56.8689 142.606 56.5381 141.911 56.5381C141.332 56.5381 140.952 56.8359 140.968 57.4645C140.968 58.0765 141.58 58.4735 142.159 58.9532C142.755 59.3998 143.334 59.9292 143.334 60.7067C143.334 61.6495 142.623 62.245 141.498 62.245C141.134 62.245 140.77 62.1954 140.439 62.0465Z" fill="white"></path><path fill-rule="evenodd" clip-rule="evenodd" d="M144.327 60.3297C144.327 59.1056 145.187 58.3281 146.13 58.3281C147.139 58.3281 147.917 59.089 147.917 60.2966C147.917 61.4545 147.123 62.2485 146.147 62.2485C145.121 62.2485 144.327 61.5042 144.327 60.3297ZM147.321 60.4951C147.321 59.5853 146.924 58.6424 146.064 58.6424C145.369 58.6424 144.923 59.3041 144.923 60.1808C144.923 61.2064 145.452 61.9673 146.213 61.9673C146.891 61.9673 147.321 61.3387 147.321 60.4951Z" fill="white"></path><path d="M149.091 61.5342V57.0017C148.959 56.8363 148.81 56.6874 148.661 56.522L149.587 56.125V61.5342C149.587 61.8485 149.703 62.0139 150.067 62.1793H148.628C148.975 62.0139 149.091 61.8485 149.091 61.5342Z" fill="white"></path><path d="M151.225 61.0741V59.1883C151.093 59.0394 150.944 58.8905 150.812 58.7251L151.754 58.3281V60.9914C151.754 61.5703 152.019 61.8515 152.631 61.8515C152.962 61.8515 153.326 61.7523 153.607 61.5042C153.458 62.017 152.995 62.2485 152.449 62.2485C151.655 62.2485 151.225 61.8019 151.225 61.0741ZM153.607 61.6034C153.607 61.2726 153.624 60.9417 153.624 60.5944V59.1883C153.491 59.0394 153.342 58.8905 153.21 58.7251L154.153 58.3281C154.136 58.8905 154.136 59.3372 154.12 59.8003C154.087 60.462 154.087 61.3718 154.087 61.5042C154.087 61.7192 154.186 61.8515 154.401 61.8515C154.583 61.8515 154.699 61.7854 154.798 61.7027C154.798 61.8791 154.743 62.017 154.633 62.1162C154.533 62.2044 154.396 62.2485 154.219 62.2485C153.839 62.2485 153.607 61.9839 153.607 61.6034Z" fill="white"></path><path d="M155.988 61.2054L156.005 58.8068H155.476L156.485 57.7812V58.5256H157.841L157.808 58.8068H156.485V61.2054C156.485 61.619 156.716 61.8505 157.113 61.8505C157.444 61.8505 157.676 61.7513 157.874 61.6355C157.825 62.049 157.477 62.2475 156.981 62.2475C156.369 62.2475 155.972 61.8836 155.988 61.2054Z" fill="white"></path><path d="M158.867 61.5379V59.2055C158.735 59.0401 158.586 58.8912 158.437 58.7258L159.364 58.3288V61.5379C159.364 61.8522 159.48 62.0176 159.843 62.1831H158.404C158.752 62.0176 158.867 61.8522 158.867 61.5379ZM158.652 57.0385C158.652 56.8566 158.867 56.625 159.049 56.625C159.248 56.625 159.463 56.84 159.463 57.0385C159.463 57.2205 159.264 57.4355 159.049 57.4355C158.867 57.4355 158.652 57.237 158.652 57.0385Z" fill="white"></path><path fill-rule="evenodd" clip-rule="evenodd" d="M160.587 60.3297C160.587 59.1056 161.447 58.3281 162.39 58.3281C163.416 58.3281 164.193 59.089 164.193 60.2966C164.193 61.4545 163.382 62.2485 162.407 62.2485C161.381 62.2485 160.587 61.5042 160.587 60.3297ZM163.581 60.4951C163.581 59.5853 163.184 58.6424 162.34 58.6424C161.629 58.6424 161.199 59.3041 161.199 60.1808C161.199 61.2064 161.712 61.9673 162.489 61.9673C163.151 61.9673 163.581 61.3387 163.581 60.4951Z" fill="white"></path><path d="M165.467 61.5372V59.2048C165.318 59.0394 165.169 58.8905 165.037 58.7251L165.963 58.3281V61.5372C165.963 61.8515 166.063 62.017 166.443 62.1824H164.987C165.335 62.017 165.467 61.8515 165.467 61.5372ZM167.799 61.5372V59.668C167.799 59.1221 167.535 58.8078 166.972 58.8078C166.592 58.8078 166.261 58.9071 165.963 59.0725C166.211 58.6259 166.592 58.3281 167.187 58.3281C167.915 58.3281 168.312 58.7913 168.312 59.4861V61.5372C168.312 61.8515 168.428 62.017 168.792 62.1824H167.336C167.684 62.017 167.799 61.8515 167.799 61.5372Z" fill="white"></path><path d="M169.685 61.5207C169.669 61.4545 169.669 61.3718 169.669 61.3057C170.016 61.7192 170.397 61.9012 170.91 61.9012C171.373 61.9012 171.687 61.6696 171.687 61.2891C171.687 61.0575 171.373 60.9252 170.992 60.7763C170.413 60.5447 169.669 60.2304 169.669 59.4364C169.669 58.7086 170.231 58.3281 170.86 58.3281C171.505 58.3281 171.952 58.5928 172.001 59.056C172.001 59.1056 172.001 59.1718 172.001 59.2379C171.687 58.874 171.29 58.7251 170.794 58.7251C170.347 58.7251 170.033 58.9567 170.033 59.3537C170.033 59.6018 170.38 59.7507 170.777 59.9327C171.356 60.1808 172.068 60.4786 172.068 61.2229C172.068 61.8515 171.571 62.2485 170.843 62.2485C170.231 62.2485 169.752 62.0335 169.685 61.5207Z" fill="white"></path><path d="M18.1953 8.08783C18.7247 7.74045 19.2705 7.4427 19.7999 7.16149C22.0992 5.92085 24.2827 5.12684 26.1189 4.61404C27.955 4.11779 29.4603 3.8862 30.4859 3.73733C31.5115 3.62153 32.0574 3.57191 32.0574 3.57191C32.0574 3.57191 31.9195 3.56088 31.6438 3.53882C31.3792 3.52228 30.9822 3.4892 30.4694 3.47266C30.2047 3.47266 29.9124 3.47266 29.5926 3.47266C29.2618 3.47266 28.9144 3.47266 28.534 3.50574C28.17 3.52228 27.7565 3.53882 27.3099 3.57191C26.8798 3.61602 26.4221 3.66564 25.9369 3.72078C23.985 3.98545 21.636 4.53133 19.0555 5.55693C18.868 5.63412 18.6861 5.71132 18.5096 5.78851C18.5261 6.45019 18.4104 7.19457 18.1953 8.08783Z" fill="#D4AF35"></path><path d="M14.0266 11.1644C14.2582 10.4531 14.6386 9.64255 15.2507 8.71621C15.6477 8.10416 15.9289 7.50865 16.1109 6.92969C14.986 7.54174 13.8612 8.23649 12.7363 9.04704C12.7694 10.0561 13.001 10.9659 13.4145 11.7268C13.6241 11.5393 13.8281 11.3519 14.0266 11.1644Z" fill="#D4AF35"></path><path d="M62.1304 35.1509C62.1139 34.6215 62.0808 34.2245 62.0642 33.9599C62.0532 33.6952 62.0477 33.5629 62.0477 33.5629C62.0477 33.5629 61.9815 34.1087 61.8823 35.1343C61.8382 35.388 61.7941 35.6747 61.7499 35.9945C61.7003 36.3088 61.6507 36.6396 61.568 37.0036C61.4853 37.3675 61.4191 37.7645 61.3199 38.178C61.2206 38.5971 61.1103 39.0382 60.989 39.5014C60.4928 41.3375 59.6988 43.5045 58.4581 45.8204C58.392 45.9692 58.3092 46.1181 58.2265 46.2505C58.1493 46.3938 58.0666 46.5427 57.9784 46.6971C57.8902 46.8404 57.802 46.9838 57.7137 47.1272C57.6365 47.2816 57.5483 47.4304 57.4491 47.5738C57.2616 47.8605 57.0741 48.1528 56.8866 48.4505C56.6881 48.7483 56.4731 49.0295 56.2581 49.3272C55.3979 50.5017 54.4219 51.6927 53.3136 52.8176C51.0639 55.0507 48.3014 57.1184 45.0592 58.6734C41.8336 60.2118 38.1447 61.2208 34.2905 61.4359C34.0479 61.4469 33.8053 61.4579 33.5627 61.4689C33.3145 61.4855 33.0829 61.4689 32.8348 61.4689C32.5922 61.48 32.3496 61.4855 32.107 61.4855C31.8644 61.4745 31.6217 61.4634 31.3791 61.4524C31.1145 61.4414 30.8498 61.4303 30.5851 61.4193C30.3535 61.3973 30.1164 61.3752 29.8738 61.3531C29.6422 61.3311 29.4051 61.309 29.1625 61.287C28.9199 61.2429 28.6773 61.2043 28.4347 61.1712C28.1866 61.1381 27.9384 61.105 27.6903 61.0719C27.4477 61.0168 27.2051 60.9672 26.9625 60.9231C26.4662 60.8404 25.9865 60.708 25.5068 60.5922L25.1429 60.493C25.0271 60.4599 24.9113 60.4268 24.7789 60.3937C24.5474 60.3165 24.3103 60.2448 24.0676 60.1787C23.8195 60.1125 23.5879 60.0298 23.3563 59.9471L22.6285 59.699C20.7427 59.0042 18.9397 58.0613 17.2193 56.9696C15.499 55.8778 13.911 54.5875 12.4553 53.1484C9.57699 50.2701 7.3273 46.7467 5.92125 42.9752L5.67312 42.2639C5.59041 42.0323 5.5077 41.7842 5.44153 41.5526C5.36434 41.31 5.29266 41.0673 5.22649 40.8247C5.19341 40.7089 5.14378 40.5931 5.1107 40.4608L5.02799 40.0969C4.9122 39.6172 4.77986 39.1375 4.69715 38.6412C4.65304 38.3986 4.60342 38.156 4.54828 37.9134C4.49865 37.6652 4.48211 37.4337 4.44902 37.1855C4.15127 35.217 4.0851 33.2651 4.18435 31.2966C4.2009 31.065 4.2009 30.8335 4.23398 30.6019C4.25604 30.3593 4.27809 30.1222 4.30015 29.8906C4.33323 29.6424 4.34977 29.4109 4.38286 29.1793C4.41594 28.9367 4.45454 28.6996 4.49865 28.468C4.53173 28.2364 4.56482 28.0048 4.61444 27.7732C4.65855 27.5416 4.70267 27.3101 4.74678 27.0785C4.7964 26.8469 4.82949 26.6153 4.89565 26.3837C4.95079 26.1521 5.01145 25.926 5.07761 25.7055C5.54079 23.9024 6.18592 22.1655 6.94684 20.561C7.72431 18.9399 8.63411 17.4346 9.61008 16.0616C10.2387 15.2014 10.8838 14.3743 11.5786 13.6134C11.4793 13.4921 11.3801 13.3708 11.2808 13.2495C10.8066 12.5878 10.3986 11.9096 10.0567 11.2148C9.08074 12.1081 8.12131 13.1006 7.21151 14.1758C6.00396 15.615 4.87911 17.2195 3.90314 18.973C2.92718 20.7264 2.10008 22.6287 1.45495 24.6468C1.37776 24.9005 1.30056 25.1541 1.22337 25.4077C1.14066 25.6724 1.07449 25.9205 1.00832 26.1852C0.942155 26.4499 0.875988 26.709 0.80982 26.9627C0.743653 27.2273 0.694028 27.492 0.644402 27.7567C0.589263 28.0213 0.534123 28.2915 0.478984 28.5672C0.429358 28.8319 0.396275 29.0966 0.363191 29.3778C0.319079 29.6424 0.280482 29.9126 0.247398 30.1883C0.197773 30.453 0.181231 30.7508 0.148147 31.032C-0.0668968 33.1989 -0.050355 35.4652 0.214314 37.7314C0.247398 38.0126 0.26394 38.2938 0.313565 38.5916C0.357677 38.8673 0.407302 39.1485 0.462442 39.4352C0.545151 39.9976 0.677486 40.5601 0.793279 41.1225L0.89253 41.5526C0.925613 41.6959 0.958697 41.8338 0.991781 41.9661C1.06898 42.2528 1.14617 42.5341 1.22337 42.8097C1.30608 43.091 1.38878 43.3722 1.48804 43.6534C1.57626 43.9181 1.66448 44.1938 1.7527 44.4805C3.2911 48.8971 5.90471 52.9995 9.24616 56.3741C10.9334 58.0448 12.8027 59.5335 14.8042 60.7907C15.7967 61.4359 16.8389 61.9983 17.8975 62.5111C18.0188 62.5772 18.1512 62.6379 18.2945 62.693L18.6915 62.875L19.5021 63.2224C20.048 63.4374 20.5939 63.6525 21.1397 63.851C21.4154 63.9392 21.6911 64.0274 21.9668 64.1156C22.248 64.2149 22.5293 64.3141 22.8105 64.3803C23.0862 64.4575 23.3619 64.5347 23.6376 64.6119C23.7864 64.645 23.9188 64.6946 24.0676 64.7277L24.4812 64.8104C25.0436 64.9427 25.606 65.0751 26.185 65.1578C26.4717 65.2019 26.7529 65.246 27.0286 65.2901C27.3098 65.3397 27.5911 65.3563 27.8888 65.3894C28.1645 65.4224 28.4457 65.4555 28.7324 65.4886C29.0136 65.5051 29.3114 65.5217 29.6092 65.5548C29.8959 65.5658 30.1826 65.5768 30.4693 65.5879C30.734 65.5989 30.9987 65.6044 31.2633 65.6044H31.6603H31.8588H31.9581H32.0574H32.107C32.3827 65.5934 32.6639 65.5823 32.9506 65.5713C33.2318 65.5548 33.4965 65.5548 33.7777 65.5382C34.0534 65.5051 34.3291 65.4776 34.6048 65.4555C39.0049 65.0254 43.1404 63.6525 46.6307 61.7005C48.3841 60.7246 49.9887 59.6163 51.4278 58.3922C52.867 57.1846 54.1407 55.9109 55.249 54.571C57.4656 51.9078 59.0205 49.1287 60.0461 46.5647C61.0883 43.9842 61.6341 41.6187 61.8823 39.6833C61.9374 39.1871 61.9926 38.7239 62.0477 38.2938C62.0808 37.8637 62.0973 37.4502 62.1139 37.0697C62.1304 36.6893 62.1304 36.3419 62.1304 36.0111C62.1304 35.6912 62.1304 35.4045 62.1304 35.1509Z" fill="#D4AF35"></path><path d="M11.8927 12.8034C13.613 15.1358 15.6808 17.0712 18.344 18.2787C18.9395 18.5599 19.6012 18.7088 20.4283 18.9735C18.7741 16.7569 19.0057 15.4501 20.9576 14.9704C20.4779 14.6395 20.0974 14.4576 19.7666 14.4576C19.0884 14.4576 18.6418 15.1854 18.0628 16.8065C16.6402 16.1448 15.8462 14.9704 15.9454 13.6139C16.0281 12.5056 16.5079 11.6785 17.5996 11.265C18.2448 11.0334 18.8899 10.7853 19.5019 10.4875C20.3456 10.074 20.8914 9.4123 20.9245 8.4198C20.329 8.86642 19.7831 9.42885 19.1215 9.71006C18.4267 10.0078 17.5996 10.0409 16.7891 10.1898C18.129 6.13702 18.1124 4.71442 16.5906 3.30837C17.4838 5.47535 17.0207 7.34458 15.8793 9.11455C14.9364 10.5702 14.2416 12.1086 14.4898 13.9613C11.3964 11.8605 11.1979 7.54308 13.7123 2.56398C13.1499 3.22566 12.5213 3.83771 12.0746 4.56555C11.6115 5.32647 11.3468 6.20319 10.8009 7.03028C10.8009 5.5746 10.7678 4.11892 10.8175 2.66324C10.8671 1.63764 10.9498 0.645132 10.1393 0C10.0069 1.20755 9.89112 2.44819 9.70916 3.68883C9.21291 7.01374 9.85804 10.0574 11.8927 12.8034Z" fill="white"></path><path fill-rule="evenodd" clip-rule="evenodd" d="M51.7587 58.0787C50.0384 58.393 50.6173 58.6081 50.088 57.0697C48.6654 52.868 46.2834 49.4273 42.5284 46.9461C41.0727 45.9866 39.8321 44.7295 38.4922 43.6046C38.1779 43.3565 37.8636 43.0918 37.4004 42.7114C37.0365 42.5294 31.9912 39.8331 34.2409 35.6149C34.2409 35.6149 31.3792 40.2632 37.5658 43.6708C38.0786 45.6227 39.4847 46.7972 41.0231 47.9882C39.9644 50.3206 38.9222 52.6365 37.8801 54.9523C37.4997 55.7629 37.1854 56.59 36.7553 57.3674C36.0605 58.6246 35.7793 58.5915 34.7372 58.3103C35.862 55.2997 36.9703 52.3553 38.0786 49.4108C35.3327 47.6408 32.6694 45.8212 31.2303 42.9926L32.901 41.6031C31.5611 42.4136 29.6919 42.7114 29.6919 42.7114C27.9881 42.976 26.2843 43.2572 24.597 43.5715C24.382 43.6046 24.1504 44.1009 24.1008 44.3986C23.5218 48.8815 22.4631 58.2441 22.3308 58.3599C22.1819 58.4592 21.5037 58.5088 21.1729 58.2938C20.8255 58.0787 21.5202 48.4348 21.7022 43.4061C21.7022 43.4061 19.3202 42.7114 18.4931 41.785C18.4931 41.785 19.2871 43.0091 20.1473 43.6873C18.9563 44.8287 17.5337 45.7881 16.078 46.731C17.0705 49.3612 18.063 51.9913 19.072 54.6877C18.1292 54.9358 17.881 54.9689 17.269 53.844C16.8885 53.1493 16.5908 52.4049 16.2599 51.677C15.3171 49.6093 14.3907 47.5416 13.4478 45.4573C14.7381 44.4483 15.9456 43.4392 16.4584 41.8346C16.1441 41.1564 15.7637 40.5113 15.3336 39.9158C13.514 37.4345 12.7531 33.7622 12.7531 33.7622C12.5546 32.4058 10.5365 24.1514 15.3832 19.7678C14.8539 19.437 14.4403 19.2054 13.9772 18.9573C12.4719 18.1964 12.0749 17.4685 12.3561 15.7812C13.0839 15.9467 13.6132 16.0294 14.2749 16.7572C14.7546 17.3031 16.3096 18.9738 16.3096 18.9738C17.6164 18.8084 18.3607 18.9242 19.6179 19.255C20.9413 19.619 21.9669 20.4295 22.6451 21.7198C23.4887 23.3409 24.8451 24.4492 26.5324 25.1605C27.4753 25.5575 27.5745 26.1695 26.7971 26.8643C26.5159 27.1124 26.152 27.3275 25.788 27.4267C24.2 27.8899 22.43 27.8733 20.842 27.4763C19.1878 27.1455 14.4734 25.971 15.6479 24.201C15.6479 24.201 13.6463 26.4342 21.0902 27.956C21.8014 28.932 23.9188 30.9667 26.2181 31.1486C28.5174 31.3306 30.7837 31.1982 33.0499 30.6524C36.5568 29.8418 39.7163 30.7185 42.5118 32.9848C42.9915 33.3818 43.19 33.7457 43.0908 34.4404C42.6938 37.0044 42.6938 39.5684 43.6698 42.0497C44.3645 43.8197 45.539 45.2092 47.0277 46.3671C47.2924 46.5656 47.5902 46.8303 47.7225 47.1115C49.2774 50.7507 50.5346 53.7779 52.073 57.4005C52.1061 57.4832 51.7422 57.9795 51.7587 58.0787ZM19.6014 20.8927C19.7337 21.1573 19.9653 21.3889 20.2796 21.5213C20.5774 21.6371 20.9082 21.6371 21.1894 21.5378C21.0571 21.2566 20.8255 21.025 20.5277 20.9092C20.2134 20.7769 19.8991 20.7934 19.6014 20.8927Z" fill="white"></path></svg>